<?xml version="1.0" encoding="UTF-8"?>
<!-- Valora User Import Flow Diagram -->
<!-- Clean XML format compatible with draw.io/mxGraph -->

<mxfile host="draw.io" modified="2025-08-30T12:00:00.000Z" agent="Claude" version="21.2.9" type="device">
  <diagram id="valora-import-flow" name="Valora User Import Flow">
    <mxGraphModel dx="1200" dy="800" grid="1" gridSize="10" guides="1" tooltips="1" connect="1" arrows="1" fold="1" page="1" pageScale="1" pageWidth="850" pageHeight="1100" math="0" shadow="0">
      <root>
        <mxCell id="0"/>
        <mxCell id="1" parent="0"/>

        <!-- Title -->
        <mxCell id="title" value="Valora User Import Flow" 
               style="text;html=1;strokeColor=none;fillColor=none;align=center;verticalAlign=middle;whiteSpace=wrap;rounded=0;fontSize=18;fontStyle=1;" 
               vertex="1" parent="1">
          <mxGeometry x="300" y="10" width="250" height="30" as="geometry"/>
        </mxCell>

        <!-- User Start Point -->
        <mxCell id="user" value="👤 User" 
               style="shape=ellipse;whiteSpace=wrap;html=1;fillColor=#e1f5fe;strokeColor=#01579b;fontSize=14;fontStyle=1;" 
               vertex="1" parent="1">
          <mxGeometry x="50" y="50" width="100" height="60" as="geometry"/>
        </mxCell>

        <!-- Step 1: Chat Conversation -->
        <mxCell id="step1" value="💬 Chat Conversation&#10;(ChatGPT, Claude, etc.)" 
               style="whiteSpace=wrap;html=1;fillColor=#fff3e0;strokeColor=#e65100;fontSize=12;rounded=5;" 
               vertex="1" parent="1">
          <mxGeometry x="200" y="50" width="140" height="60" as="geometry"/>
        </mxCell>

        <!-- Step 2: Copy/Paste -->
        <mxCell id="step2" value="📋 Copy/Paste&#10;Conversation" 
               style="whiteSpace=wrap;html=1;fillColor=#e8f5e8;strokeColor=#2e7d32;fontSize=12;rounded=5;" 
               vertex="1" parent="1">
          <mxGeometry x="380" y="50" width="140" height="60" as="geometry"/>
        </mxCell>

        <!-- Step 3: Parse Chat -->
        <mxCell id="step3" value="🔄 Parse Chat&#10;(Auto-detect format)" 
               style="whiteSpace=wrap;html=1;fillColor=#f3e5f5;strokeColor=#7b1fa2;fontSize=12;rounded=5;" 
               vertex="1" parent="1">
          <mxGeometry x="560" y="50" width="140" height="60" as="geometry"/>
        </mxCell>

        <!-- Step 4: Generate JSON -->
        <mxCell id="step4" value="📄 Generate JSON&#10;Structured Format" 
               style="whiteSpace=wrap;html=1;fillColor=#fff8e1;strokeColor=#f57c00;fontSize=12;rounded=5;" 
               vertex="1" parent="1">
          <mxGeometry x="450" y="150" width="140" height="60" as="geometry"/>
        </mxCell>

        <!-- Step 5: Import to Valora -->
        <mxCell id="step5" value="⬆️ Import to Valora&#10;API or CLI" 
               style="whiteSpace=wrap;html=1;fillColor=#e3f2fd;strokeColor=#1565c0;fontSize=12;rounded=5;" 
               vertex="1" parent="1">
          <mxGeometry x="250" y="150" width="140" height="60" as="geometry"/>
        </mxCell>

        <!-- Step 6: Store as Memories -->
        <mxCell id="step6" value="🧠 Store as Memories&#10;Individual Messages" 
               style="whiteSpace=wrap;html=1;fillColor=#fce4ec;strokeColor=#c2185b;fontSize=12;rounded=5;" 
               vertex="1" parent="1">
          <mxGeometry x="50" y="250" width="140" height="60" as="geometry"/>
        </mxCell>

        <!-- Step 7: Search & Export -->
        <mxCell id="step7" value="🔍 Search &amp; Export&#10;Memory Bundles" 
               style="whiteSpace=wrap;html=1;fillColor=#f1f8e9;strokeColor=#33691e;fontSize=12;rounded=5;" 
               vertex="1" parent="1">
          <mxGeometry x="250" y="350" width="140" height="60" as="geometry"/>
        </mxCell>

        <!-- Step 8: Use in AI Tools -->
        <mxCell id="step8" value="🤖 Use in AI Tools&#10;Cursor, Claude, etc." 
               style="whiteSpace=wrap;html=1;fillColor=#fff3e0;strokeColor=#e65100;fontSize=12;rounded=5;" 
               vertex="1" parent="1">
          <mxGeometry x="450" y="350" width="140" height="60" as="geometry"/>
        </mxCell>

        <!-- Alternative Path: Direct API Import -->
        <mxCell id="directApi" value="🚀 Direct API Import&#10;(Skip CLI parsing)" 
               style="whiteSpace=wrap;html=1;fillColor=#f5f5f5;strokeColor=#616161;fontSize=10;dashed=1;rounded=5;" 
               vertex="1" parent="1">
          <mxGeometry x="600" y="200" width="120" height="40" as="geometry"/>
        </mxCell>

        <!-- Arrows/Connections -->
        
        <!-- User to Step 1 -->
        <mxCell id="arrow1" value="" 
               style="endArrow=classic;html=1;rounded=0;strokeWidth=2;strokeColor=#333333;" 
               edge="1" parent="1" source="user" target="step1">
          <mxGeometry width="50" height="50" relative="1" as="geometry">
            <mxPoint x="160" y="80" as="sourcePoint"/>
            <mxPoint x="200" y="80" as="targetPoint"/>
          </mxGeometry>
        </mxCell>

        <!-- Step 1 to Step 2 -->
        <mxCell id="arrow2" value="" 
               style="endArrow=classic;html=1;rounded=0;strokeWidth=2;strokeColor=#333333;" 
               edge="1" parent="1" source="step1" target="step2">
          <mxGeometry width="50" height="50" relative="1" as="geometry">
            <mxPoint x="340" y="80" as="sourcePoint"/>
            <mxPoint x="380" y="80" as="targetPoint"/>
          </mxGeometry>
        </mxCell>

        <!-- Step 2 to Step 3 -->
        <mxCell id="arrow3" value="" 
               style="endArrow=classic;html=1;rounded=0;strokeWidth=2;strokeColor=#333333;" 
               edge="1" parent="1" source="step2" target="step3">
          <mxGeometry width="50" height="50" relative="1" as="geometry">
            <mxPoint x="520" y="80" as="sourcePoint"/>
            <mxPoint x="560" y="80" as="targetPoint"/>
          </mxGeometry>
        </mxCell>

        <!-- Step 3 to Step 4 -->
        <mxCell id="arrow4" value="" 
               style="endArrow=classic;html=1;rounded=0;strokeWidth=2;strokeColor=#333333;" 
               edge="1" parent="1" source="step3" target="step4">
          <mxGeometry width="50" height="50" relative="1" as="geometry">
            <mxPoint x="630" y="110" as="sourcePoint"/>
            <mxPoint x="520" y="150" as="targetPoint"/>
          </mxGeometry>
        </mxCell>

        <!-- Step 4 to Step 5 -->
        <mxCell id="arrow5" value="" 
               style="endArrow=classic;html=1;rounded=0;strokeWidth=2;strokeColor=#333333;" 
               edge="1" parent="1" source="step4" target="step5">
          <mxGeometry width="50" height="50" relative="1" as="geometry">
            <mxPoint x="450" y="180" as="sourcePoint"/>
            <mxPoint x="390" y="180" as="targetPoint"/>
          </mxGeometry>
        </mxCell>

        <!-- Step 5 to Step 6 -->
        <mxCell id="arrow6" value="" 
               style="endArrow=classic;html=1;rounded=0;strokeWidth=2;strokeColor=#333333;" 
               edge="1" parent="1" source="step5" target="step6">
          <mxGeometry width="50" height="50" relative="1" as="geometry">
            <mxPoint x="320" y="210" as="sourcePoint"/>
            <mxPoint x="120" y="250" as="targetPoint"/>
          </mxGeometry>
        </mxCell>

        <!-- Step 6 to Step 7 -->
        <mxCell id="arrow7" value="" 
               style="endArrow=classic;html=1;rounded=0;strokeWidth=2;strokeColor=#333333;" 
               edge="1" parent="1" source="step6" target="step7">
          <mxGeometry width="50" height="50" relative="1" as="geometry">
            <mxPoint x="120" y="310" as="sourcePoint"/>
            <mxPoint x="320" y="350" as="targetPoint"/>
          </mxGeometry>
        </mxCell>

        <!-- Step 7 to Step 8 -->
        <mxCell id="arrow8" value="" 
               style="endArrow=classic;html=1;rounded=0;strokeWidth=2;strokeColor=#333333;" 
               edge="1" parent="1" source="step7" target="step8">
          <mxGeometry width="50" height="50" relative="1" as="geometry">
            <mxPoint x="390" y="380" as="sourcePoint"/>
            <mxPoint x="450" y="380" as="targetPoint"/>
          </mxGeometry>
        </mxCell>

        <!-- Step 4 to Direct API (dashed alternative) -->
        <mxCell id="arrowDirect" value="" 
               style="endArrow=classic;html=1;rounded=0;strokeWidth=1;strokeColor=#666666;dashed=1;" 
               edge="1" parent="1" source="step4" target="directApi">
          <mxGeometry width="50" height="50" relative="1" as="geometry">
            <mxPoint x="590" y="180" as="sourcePoint"/>
            <mxPoint x="660" y="200" as="targetPoint"/>
          </mxGeometry>
        </mxCell>

        <!-- Legend -->
        <mxCell id="legend" value="📋 Legend:&#10;• Solid lines = Primary workflow&#10;• Dashed lines = Alternative paths&#10;• Colors indicate process stages" 
               style="whiteSpace=wrap;html=1;fillColor=#fafafa;strokeColor=#9e9e9e;fontSize=10;rounded=5;" 
               vertex="1" parent="1">
          <mxGeometry x="50" y="480" width="220" height="80" as="geometry"/>
        </mxCell>

      </root>
    </mxGraphModel>
  </diagram>
</mxfile>